<svg width="16" height="16" viewBox="0 0 16 16" fill="none" xmlns="http://www.w3.org/2000/svg">
<path d="M12.4173 1.96045C13.1392 1.96045 13.7244 2.53762 13.7244 3.2496L13.7244 12.4348C13.7244 13.1467 13.1392 13.7239 12.4173 13.7239H10.4568C9.73491 13.7239 9.14972 13.1467 9.14972 12.4348L9.14972 3.2496C9.14972 2.53762 9.73491 1.96045 10.4568 1.96045L12.4173 1.96045Z" stroke="white" stroke-width="1.30705" stroke-linecap="round" stroke-linejoin="round"/>
<path d="M3.26799 1.96045C2.54612 1.96045 1.96094 2.53762 1.96094 3.2496L1.96094 12.4348C1.96094 13.1467 2.54612 13.7239 3.26799 13.7239H5.22857C5.95043 13.7239 6.53562 13.1467 6.53562 12.4348L6.53562 3.2496C6.53562 2.53762 5.95043 1.96045 5.22857 1.96045L3.26799 1.96045Z" stroke="white" stroke-width="1.30705" stroke-linecap="round" stroke-linejoin="round"/>
</svg>
