<svg width="16" height="16" viewBox="0 0 16 16" fill="none" xmlns="http://www.w3.org/2000/svg">
<path d="M13.7244 12.4169C13.7244 13.1387 13.1472 13.7239 12.4353 13.7239L3.25008 13.7239C2.53811 13.7239 1.96094 13.1387 1.96094 12.4169L1.96094 10.4563C1.96094 9.73442 2.53811 9.14923 3.25008 9.14923L12.4353 9.14923C13.1472 9.14923 13.7244 9.73442 13.7244 10.4563V12.4169Z" stroke="white" stroke-width="1.30705" stroke-linecap="round" stroke-linejoin="round"/>
<path d="M13.7244 3.2675C13.7244 2.54564 13.1472 1.96045 12.4353 1.96045L3.25008 1.96045C2.53811 1.96045 1.96094 2.54564 1.96094 3.2675L1.96094 5.22808C1.96094 5.94994 2.53811 6.53513 3.25008 6.53513H12.4353C13.1472 6.53513 13.7244 5.94994 13.7244 5.22808V3.2675Z" stroke="white" stroke-width="1.30705" stroke-linecap="round" stroke-linejoin="round"/>
</svg>
