<svg preserveAspectRatio="none" width="100%" height="100%" overflow="visible" style="display: block;" viewBox="0 0 11.4989 13.8507" fill="none" xmlns="http://www.w3.org/2000/svg">
<path id="Icon" d="M7.70958 0.653333V3.00533C7.70958 3.43832 8.06059 3.78933 8.49358 3.78933H10.8456M9.66958 1.82933C9.32065 1.51713 8.95857 1.14685 8.72999 0.906355C8.57788 0.746325 8.36772 0.653333 8.14694 0.653333H2.22139C1.35542 0.653333 0.653399 1.35535 0.653394 2.22132L0.653333 11.6293C0.653328 12.4953 1.35534 13.1973 2.22133 13.1973L9.27736 13.1973C10.1433 13.1973 10.8453 12.4953 10.8454 11.6294L10.8456 3.31752C10.8456 3.11705 10.7691 2.92434 10.63 2.78002C10.3727 2.51314 9.94305 2.07402 9.66958 1.82933Z" stroke="var(--stroke-0, white)" stroke-width="1.30667" stroke-linecap="round" stroke-linejoin="round"/>
</svg>
