<svg width="16" height="16" viewBox="0 0 16 16" fill="none" xmlns="http://www.w3.org/2000/svg">
<path d="M12.4173 1.96045C13.1392 1.96045 13.7244 2.53762 13.7244 3.24959L13.7244 5.45023C13.7244 6.1622 13.1392 6.73937 12.4174 6.73937H10.4568C9.73491 6.73937 9.14972 6.1622 9.14972 5.45023L9.14972 3.24959C9.14972 2.53762 9.73491 1.96045 10.4568 1.96045L12.4173 1.96045Z" stroke="white" stroke-width="1.30705" stroke-linecap="round" stroke-linejoin="round"/>
<path d="M3.26799 1.96045C2.54612 1.96045 1.96094 2.53762 1.96094 3.24959L1.96094 5.45023C1.96094 6.1622 2.54613 6.73937 3.26799 6.73937H5.22857C5.95043 6.73937 6.53562 6.1622 6.53562 5.45023L6.53562 3.24959C6.53562 2.53762 5.95043 1.96045 5.22856 1.96045L3.26799 1.96045Z" stroke="white" stroke-width="1.30705" stroke-linecap="round" stroke-linejoin="round"/>
<path d="M12.4174 8.94501C13.1392 8.94501 13.7244 9.52218 13.7244 10.2342V12.4348C13.7244 13.1467 13.1392 13.7239 12.4174 13.7239H10.4568C9.73491 13.7239 9.14973 13.1467 9.14973 12.4348L9.14972 10.2342C9.14972 9.52218 9.73491 8.94501 10.4568 8.94501H12.4174Z" stroke="white" stroke-width="1.30705" stroke-linecap="round" stroke-linejoin="round"/>
<path d="M3.26799 8.94501C2.54613 8.94501 1.96094 9.52218 1.96094 10.2342L1.96094 12.4348C1.96094 13.1467 2.54613 13.7239 3.268 13.7239H5.22857C5.95044 13.7239 6.53562 13.1467 6.53562 12.4348L6.53562 10.2342C6.53562 9.52218 5.95043 8.94501 5.22857 8.94501H3.26799Z" stroke="white" stroke-width="1.30705" stroke-linecap="round" stroke-linejoin="round"/>
</svg>
